# AST/ASF file generated using VICON BodyLanguage
# -----------------------------------------------
:version 1.10
:name VICON
:units
  mass 1.0
  length 0.45
  angle deg
:documentation
   .ast/.asf automatically generated from VICON data using
   VICON BodyBuilder and BodyLanguage model FoxedUp or BRILLIANT.MOD
:root
   order TX TY TZ RX RY RZ
   axis XYZ
   position 0 0 0  
   orientation 0 0 0 
:bonedata
  begin
     id 1 
     name lhipjoint
     direction 0.578396 -0.714046 0.394458 
     length 2.21935 
     axis 0 0 0  XYZ
  end
  begin
     id 2 
     name lfemur
     direction 0.34202 -0.939693 0  
     length 6.39105  
     axis 0 0 20  XYZ
    dof rx ry rz
    limits (-160.0 20.0)
           (-70.0 70.0)
           (-60.0 70.0)
  end
  begin
     id 3 
     name ltibia
     direction 0.34202 -0.939693 0   
     length 6.99037   
     axis 0 0 20   XYZ
    dof rx
    limits (-10.0 170.0)
  end
  begin
     id 4 
     name lfoot
     direction 0.0582372 -0.160005 0.985397   
     length 2.06111   
     axis -90 7.62852e-016 20   XYZ
    dof rx rz
    limits (-45.0 90.0)
           (-70.0 20.0)
  end
  begin
     id 5 
     name ltoes
     direction 1.53556e-011 -4.21875e-011 1   
     length 1.04074   
     axis -90 7.62852e-016 20   XYZ
    dof rx
    limits (-90.0 20.0)
  end
  begin
     id 6 
     name rhipjoint
     direction -0.558179 -0.726269 0.40121   
     length 2.182  
     axis 0 0 0  XYZ 
  end
  begin
     id 7 
     name rfemur
     direction -0.34202 -0.939693 0   
     length 6.51172   
     axis 0 0 -20   XYZ
    dof rx ry rz
    limits (-160.0 20.0)
           (-70.0 70.0)
           (-70.0 60.0)
  end
  begin
     id 8 
     name rtibia
     direction -0.34202 -0.939693 0   
     length 7.02607   
     axis 0 0 -20   XYZ
    dof rx
    limits (-10.0 170.0)
 end
 begin
     id 9 
     name rfoot
     direction -0.0788856 -0.216737 0.973038   
     length 1.96734  
     axis -90 -7.62852e-016 -20   XYZ
    dof rx rz
    limits (-45.0 90.0)
           (-20.0 70.0)
  end
  begin
     id 10 
     name rtoes
     direction -1.53567e-011 -4.21783e-011 1   
     length 0.990825   
     axis -90 -7.62852e-016 -20   XYZ
    dof rx
    limits (-90.0 20.0)
  end
  begin
     id 11 
     name lowerback
     direction 0.00668177 0.999323 -0.0361741   
     length 1.7655   
     axis 0 0 0   XYZ
    dof rx ry rz
    limits (-20.0 45.0)
           (-30.0 30.0)
           (-30.0 30.0)
  end
  begin
     id 12 
     name upperback
     direction -0.00222086 0.99851 0.0545167   
     length 1.74912   
     axis 0 0 0   XYZ
    dof rx ry rz
    limits (-20.0 45.0)
           (-30.0 30.0)
           (-30.0 30.0)
  end
  begin
     id 13 
     name thorax
     direction -0.00733971 0.997496 0.0703443   
     length 1.75715   
     axis 0 0 0   XYZ
    dof rx ry rz
    limits (-20.0 45.0)
           (-30.0 30.0)
           (-30.0 30.0)
  end
  begin
     id 14 
     name lowerneck
     direction 0.0279797 0.994795 0.0979765   
     length 1.46939   
     axis 0 0 0   XYZ
    dof rx ry rz
    limits (-20.0 45.0)
           (-30.0 30.0)
           (-30.0 30.0)
  end
  begin
     id 15 
     name upperneck
     direction 0.00339187 0.976776 -0.214238   
     length 1.48018   
     axis 0 0 0   XYZ
    dof rx ry rz
    limits (-20.0 45.0)
           (-30.0 30.0)
           (-30.0 30.0)
  end
  begin
     id 16
     name head
     direction -0.00263506 0.996603 -0.0823096  
     length 1.4976  
     axis 0 0 0   XYZ
    dof rx ry rz
    limits (-20.0 45.0)
           (-30.0 30.0)
           (-30.0 30.0)
  end
  begin
     id 17 
     name lclavicle
     direction 0.894044 0.44508 -0.0508781  
     length 3.03024  
     axis 0 0 0   XYZ
    dof ry rz
    limits (-20.0 10.0)
           (0.0 20.0)
  end
  begin
     id 18 
     name lhumerus
     direction 1 -4.48961e-011 -2.39475e-018   
     length 4.4661   
     axis 180 -30 -90   XYZ
    dof rx ry rz
    limits (-60.0 90.0)
           (-90.0 90.0)
           (-90.0 90.0)
  end
  begin
     id 19
     name lradius
     direction 1 -4.48961e-011 9.29328e-028   
     length 3.41414   
     axis 180 -30 -90   XYZ
    dof rx
    limits (-10.0 170.0)
  end
  begin
     id 20
     name lwrist
     direction 1 -4.48985e-011 1.53461e-026   
     length 1.70707   
     axis -1.09697e-014 90 90   XYZ
    dof ry
    limits (-180.0 0.0)
 end
  begin
     id 21 
     name lhand
     direction 1 -4.48966e-011 3.06923e-026   
     length 0.328298   
     axis -1.95843e-014 90 90   XYZ
    dof rx rz
    limits (-90.0 90.0)
           (-45.0 45.0)
  end
  begin
     id 22 
     name lfingers
     direction 1 -4.48893e-011 6.13845e-026   
     length 0.264682   
     axis -3.91686e-014 90 90   XYZ
    dof rx
    limits (0.0 90.0)
  end
  begin
     id 23
     name lthumb
     direction 0.707107 -6.34876e-011 0.707107   
     length 0.380032   
     axis -90 45 2.85299e-015   XYZ
    dof rx rz
    limits (-45.0 45.0)
           (-45.0 45.0)
  end
  begin
     id 24 
     name rclavicle
     direction -0.936955 0.347862 -0.0332887   
     length 3.26927  
     axis 0 0 0   XYZ 
    dof ry rz
    limits (-10.0 20.0)
           (-20.0 0.0)
  end
  begin
     id 25 
     name rhumerus
     direction -1 -4.4896e-011 1.78637e-018  
     length 4.40431   
     axis 180 30 90   XYZ
    dof rx ry rz
    limits (-90.0 60.0)
           (-90.0 90.0)
           (-90.0 90.0)
  end
  begin
     id 26 
     name rradius
     direction -1 -4.48955e-011 9.34036e-027   
     length 3.04688   
     axis 180 30 90   XYZ
    dof rx
    limits (-10.0 170.0)
  end
  begin
     id 27 
     name rwrist
     direction -1 -4.49011e-011 1.53461e-026   
     length 1.52344   
     axis -1.09697e-014 -90 -90   XYZ
    dof ry
    limits (-180.0 0.0)
  end
  begin
     id 28
     name rhand
     direction -1 -4.48834e-011 3.06923e-026   
     length 0.500489   
     axis -1.95843e-014 -90 -90   XYZ
    dof rx rz
    limits (-90.0 90.0)
           (-45.0 45.0)
  end
  begin
     id 29
     name rfingers
     direction -1 -4.48967e-011 6.13845e-026   
     length 0.403507   
     axis -3.91686e-014 -90 -90   XYZ
    dof rx
    limits (0.0 90.0)
  end
  begin
     id 30
     name rthumb
     direction -0.707107 -6.34826e-011 0.707107   
     length 0.579358   
     axis -90 -45 -2.85299e-015   XYZ
    dof rx rz
    limits (-45.0 45.0)
           (-45.0 45.0)
  end
:hierarchy
  begin
    root lhipjoint rhipjoint lowerback
    lhipjoint lfemur
    lfemur ltibia
    ltibia lfoot
    lfoot ltoes
    rhipjoint rfemur
    rfemur rtibia
    rtibia rfoot
    rfoot rtoes
    lowerback upperback
    upperback thorax
    thorax lowerneck lclavicle rclavicle
    lowerneck upperneck
    upperneck head
    lclavicle lhumerus
    lhumerus lradius
    lradius lwrist
    lwrist lhand lthumb
    lhand lfingers
    rclavicle rhumerus
    rhumerus rradius
    rradius rwrist
    rwrist rhand rthumb
    rhand rfingers
  end

#!OML:ASF H:\IndianDance\Patient Classification 1\Patient 1\Session 1\dancer.ASF
:FULLY-SPECIFIED
:DEGREES
1289
root 9.30946 14.7918 4.21885 -174.01 -23.4168 177.304
lowerback 6.67617 5.4691 -0.237757
upperback -6.8308 5.98437 -8.1185
thorax -10.2452 2.28877 -9.59862
lowerneck -21.0325 1.87739 -3.7054
upperneck 27.7597 -2.32239 16.1926
head 13.107 0.297849 6.56528
rclavicle -3.71727e-014 -6.83819e-014
rhumerus -10.8566 45.9784 -37.0028
rradius 111.175
rwrist -66.5379
rhand 55.0686 -15.4141
rfingers 7.12502
rthumb 72.8538 1.11683
lclavicle -3.71727e-014 -6.83819e-014
lhumerus 14.893 -10.9221 5.54083
lradius 42.2217
lwrist 0.897004
lhand -14.1548 -1.40031
lfingers 7.12502
lthumb 11.9798 388.237
rfemur -31.1902 -20.9115 38.8852
rtibia 44.527
rfoot -23.956 -13.2829
rtoes 34.0367
lfemur -31.7474 34.2775 -18.958
ltibia 88.5955
lfoot 3.28827 -20.3396
ltoes -21.2064
1290
root 9.36568 14.8288 4.17875 -173.954 -23.4372 177.38
lowerback 6.56358 5.41459 -0.246956
upperback -6.83027 5.90038 -8.1757
thorax -10.186 2.24517 -9.63173
lowerneck -21.0889 1.93694 -3.62294
upperneck 27.8954 -2.3246 16.2535
head 13.178 0.310585 6.58756
rclavicle 4.05521e-014 6.36111e-015
rhumerus -11.3216 45.2841 -37.3708
rradius 111.353
rwrist -67.468
rhand 55.1932 -15.3869
rfingers 7.12502
rthumb 72.9129 1.50057
lclavicle 4.05521e-014 6.36111e-015
lhumerus 14.5298 -11.8112 5.36984
lradius 42.8033
lwrist 1.21435
lhand -15.4112 -1.90734
lfingers 7.12502
lthumb 10.7681 387.797
rfemur -30.8064 -20.9007 39.1168
rtibia 43.7649
rfoot -23.5324 -12.7052
rtoes 34.7793
lfemur -31.2274 33.9262 -19.607
ltibia 87.0469
lfoot 4.59838 -21.6407
ltoes -20.2832
1291
root 9.4216 14.857 4.13984 -173.862 -23.4386 177.389
lowerback 6.42499 5.38197 -0.332122
upperback -6.82134 5.83526 -8.24351
thorax -10.106 2.21613 -9.63165
lowerneck -21.0968 1.98192 -3.58059
upperneck 27.9537 -2.32091 16.3279
head 13.2057 0.322279 6.61589
rclavicle -1.03964e-013 -1.43125e-014
rhumerus -11.806 44.5644 -37.7251
rradius 111.577
rwrist -68.441
rhand 55.4334 -15.6782
rfingers 7.12502
rthumb 73.0248 1.90291
lclavicle -1.03964e-013 -1.43125e-014
lhumerus 13.9346 -12.6452 5.32562
lradius 43.5502
lwrist 1.45541
lhand -16.5201 -2.99639
lfingers 7.12502
lthumb 9.69834 386.76
rfemur -30.4206 -21.0039 39.3546
rtibia 42.9925
rfoot -22.9661 -12.3571
rtoes 34.527
lfemur -30.6875 33.5936 -20.3784
ltibia 85.1514
lfoot 5.47704 -22.7191
ltoes -18.4454
1292
root 9.47886 14.8897 4.10124 -173.738 -23.4697 177.379
lowerback 6.27592 5.3394 -0.463835
upperback -6.82003 5.75259 -8.29577
thorax -10.0373 2.18176 -9.5852
lowerneck -21.1107 2.01676 -3.51514
upperneck 28.0374 -2.3277 16.3514
head 13.2457 0.326257 6.61942
rclavicle 2.50469e-014 -2.8625e-014
rhumerus -12.271 43.8454 -37.997
rradius 111.847
rwrist -69.4318
rhand 55.6006 -15.7259
rfingers 7.12502
rthumb 73.1012 2.34383
lclavicle 2.50469e-014 -2.8625e-014
lhumerus 13.5143 -13.6014 5.2867
lradius 44.1719
lwrist 2.01856
lhand -17.8724 -4.0127
lfingers 7.12502
lthumb 8.39346 385.801
rfemur -30.0972 -21.117 39.5541
rtibia 42.2752
rfoot -22.3007 -11.9307
rtoes 33.9144
lfemur -30.1269 33.1351 -21.1764
ltibia 82.8296
lfoot 6.40182 -22.659
ltoes -15.2669
1293
root 9.53587 14.9231 4.0635 -173.597 -23.4453 177.439
lowerback 6.06395 5.29683 -0.52015
upperback -6.83785 5.6861 -8.32386
thorax -9.94402 2.15291 -9.55049
lowerneck -21.1234 2.07868 -3.39991
upperneck 28.172 -2.28932 16.2837
head 13.298 0.345529 6.58707
rclavicle 1.5704e-014 3.65764e-014
rhumerus -12.5879 43.1425 -38.2428
rradius 112.024
rwrist -70.4346
rhand 55.8131 -15.751
rfingers 7.12502
rthumb 73.1964 2.94596
lclavicle 1.5704e-014 3.65764e-014
lhumerus 13.0184 -14.5387 5.3151
lradius 44.7493
lwrist 2.49665
lhand -19.092 -5.32243
lfingers 7.12502
lthumb 7.21638 384.535
rfemur -29.8447 -21.2162 39.8359
rtibia 41.6141
rfoot -21.6566 -11.3801
rtoes 33.6478
lfemur -29.5036 32.6818 -21.91
ltibia 80.1223
lfoot 7.07055 -21.4491
ltoes -14.4132
1294
root 9.59124 14.9541 4.02431 -173.432 -23.3694 177.29
lowerback 5.87312 5.28925 -0.797821
upperback -6.81617 5.6327 -8.3905
thorax -9.8366 2.14284 -9.43341
lowerneck -21.1729 2.13106 -3.28484
upperneck 28.2595 -2.25196 16.215
head 13.3391 0.367272 6.55211
rclavicle -1.03368e-014 -4.77083e-015
rhumerus -12.9925 42.4224 -38.4651
rradius 112.312
rwrist -71.4546
rhand 56.5609 -16.1145
rfingers 7.12502
rthumb 73.5145 4.84623
lclavicle -1.03368e-014 -4.77083e-015
lhumerus 12.4804 -15.537 5.29752
lradius 45.4402
lwrist 3.0489
lhand -20.7937 -6.47379
lfingers 7.12502
lthumb 5.57349 383.433
rfemur -29.5814 -21.4304 39.9029
rtibia 41.0712
rfoot -20.9063 -10.851
rtoes 32.6952
lfemur -28.6125 32.2331 -22.7914
ltibia 76.9693
lfoot 6.81581 -19.5632
ltoes -17.2167
1295
root 9.65146 14.9848 3.98889 -173.2 -23.3548 177.287
lowerback 5.61356 5.26328 -0.975008
upperback -6.84129 5.57485 -8.41858
thorax -9.73404 2.12546 -9.32648
lowerneck -21.1301 2.19294 -3.19223
upperneck 28.2892 -2.19482 16.182
head 13.334 0.395451 6.53095
rclavicle 1.59624e-013 -1.54257e-013
rhumerus -13.3712 41.6576 -38.64
rradius 112.581
rwrist -72.5921
rhand 56.6219 -16.1677
rfingers 7.12502
rthumb 73.5392 4.98168
lclavicle 1.59624e-013 -1.54257e-013
lhumerus 12.0423 -16.4956 5.33673
lradius 46.0355
lwrist 3.26937
lhand -22.1522 -7.52785
lfingers 7.12502
lthumb 4.26176 382.409
rfemur -29.5624 -21.6081 40.1678
rtibia 40.6759
rfoot -20.2281 -10.1414
rtoes 32.1443
lfemur -27.9202 31.6294 -23.5173
ltibia 73.4825
lfoot 7.06024 -17.0193
ltoes -18.2837
1296
root 9.71223 15.0146 3.95502 -173.016 -23.3022 177.392
lowerback 5.34394 5.21695 -1.03857
upperback -6.86436 5.51436 -8.40436
thorax -9.61531 2.10418 -9.23533
lowerneck -21.1224 2.28355 -3.03445
upperneck 28.3796 -2.08779 16.0341
head 13.3526 0.441783 6.46429
rclavicle 7.4743e-014 -5.56597e-014
rhumerus -13.6494 40.9304 -38.7355
rradius 112.892
rwrist -73.8493
rhand 56.2785 -15.9634
rfingers 7.12502
rthumb 73.3975 4.13215
lclavicle 7.4743e-014 -5.56597e-014
lhumerus 11.5077 -17.3343 5.48126
lradius 46.5818
lwrist 3.16216
lhand -23.3671 -8.74863
lfingers 7.12502
lthumb 3.08859 381.209
rfemur -29.6059 -21.8184 40.5317
rtibia 40.4303
rfoot -19.5234 -9.28111
rtoes 31.5095
lfemur -27.1857 30.8845 -24.0222
ltibia 69.8893
lfoot 7.40356 -13.7815
ltoes -17.2338
1297
root 9.77254 15.0409 3.92286 -172.822 -23.243 177.48
lowerback 5.09866 5.19084 -1.15177
upperback -6.8875 5.47496 -8.3874
thorax -9.51331 2.09586 -9.11907
lowerneck -21.0604 2.34328 -2.92769
upperneck 28.3686 -2.0162 15.9647
head 13.3237 0.473843 6.42377
rclavicle 7.7526e-015 -3.18055e-015
rhumerus -13.8884 40.1646 -38.7702
rradius 113.145
rwrist -75.1431
rhand 56.6345 -16.1653
rfingers 7.12502
rthumb 73.5443 5.02302
lclavicle 7.7526e-015 -3.18055e-015
lhumerus 11.1566 -18.442 5.41101
lradius 47.1928
lwrist 3.32775
lhand -24.7842 -9.70418
lfingers 7.12502
lthumb 1.71998 380.269
rfemur -29.758 -22.0325 40.8293
rtibia 40.3704
rfoot -18.8072 -8.10766
rtoes 31.6052
lfemur -26.4549 29.9283 -24.4186
ltibia 66.5091
lfoot 9.84547 -10.5837
ltoes 4.17231
